<svg xmlns="http://www.w3.org/2000/svg" width="24" height="24" fill="none"><path fill="#666" d="M3.406 3.398l3.672-.82c.86-.195 1.719.235 2.031 1.016l1.72 3.984a1.762 1.762 0 01-.509 2.07l-1.562 1.29c1.094 2.03 2.812 3.71 4.844 4.843l1.289-1.562a1.762 1.762 0 012.07-.508l3.984 1.68a1.817 1.817 0 011.016 2.07l-.82 3.672a1.796 1.796 0 01-1.758 1.367C9.813 22.5 2 14.766 2 5.156c0-.82.586-1.562 1.406-1.758zm15.899 17.227l.82-3.516-3.828-1.64-2.188 2.656c-3.867-1.836-5.859-3.828-7.695-7.695L9.07 8.242 7.43 4.414l-3.555.82c.04 8.477 6.953 15.352 15.43 15.391z"/></svg>